<mxfile host="app.diagrams.net" modified="2023-07-03T08:34:45.974Z" agent="Mozilla/5.0 (Windows NT 10.0; Win64; x64; rv:109.0) Gecko/20100101 Firefox/114.0" etag="9UK6x2ywJc8OVh8UAPZO" version="21.5.2" type="device">
  <diagram id="C5RBs43oDa-KdzZeNtuy" name="Page-1">
    <mxGraphModel dx="1728" dy="922" grid="1" gridSize="10" guides="1" tooltips="1" connect="1" arrows="1" fold="1" page="1" pageScale="1" pageWidth="583" pageHeight="413" math="0" shadow="0">
      <root>
        <mxCell id="WIyWlLk6GJQsqaUBKTNV-0" />
        <mxCell id="WIyWlLk6GJQsqaUBKTNV-1" parent="WIyWlLk6GJQsqaUBKTNV-0" />
        <mxCell id="p3O5rdR1s3KHmmkNWaoz-0" value="" style="ellipse;whiteSpace=wrap;html=1;aspect=fixed;" vertex="1" parent="WIyWlLk6GJQsqaUBKTNV-1">
          <mxGeometry x="95" y="225" width="10" height="10" as="geometry" />
        </mxCell>
        <mxCell id="p3O5rdR1s3KHmmkNWaoz-1" value="" style="ellipse;whiteSpace=wrap;html=1;aspect=fixed;" vertex="1" parent="WIyWlLk6GJQsqaUBKTNV-1">
          <mxGeometry x="90" y="310" width="20" height="20" as="geometry" />
        </mxCell>
        <mxCell id="p3O5rdR1s3KHmmkNWaoz-2" value="" style="ellipse;whiteSpace=wrap;html=1;aspect=fixed;" vertex="1" parent="WIyWlLk6GJQsqaUBKTNV-1">
          <mxGeometry x="480" y="310" width="20" height="20" as="geometry" />
        </mxCell>
        <mxCell id="p3O5rdR1s3KHmmkNWaoz-3" value="" style="ellipse;whiteSpace=wrap;html=1;aspect=fixed;" vertex="1" parent="WIyWlLk6GJQsqaUBKTNV-1">
          <mxGeometry x="251" y="315" width="10" height="10" as="geometry" />
        </mxCell>
        <mxCell id="p3O5rdR1s3KHmmkNWaoz-4" value="" style="ellipse;whiteSpace=wrap;html=1;aspect=fixed;" vertex="1" parent="WIyWlLk6GJQsqaUBKTNV-1">
          <mxGeometry x="329" y="315" width="10" height="10" as="geometry" />
        </mxCell>
        <mxCell id="p3O5rdR1s3KHmmkNWaoz-5" value="" style="ellipse;whiteSpace=wrap;html=1;aspect=fixed;" vertex="1" parent="WIyWlLk6GJQsqaUBKTNV-1">
          <mxGeometry x="407" y="315" width="10" height="10" as="geometry" />
        </mxCell>
        <mxCell id="p3O5rdR1s3KHmmkNWaoz-6" value="" style="endArrow=classic;html=1;rounded=0;" edge="1" parent="WIyWlLk6GJQsqaUBKTNV-1">
          <mxGeometry width="50" height="50" relative="1" as="geometry">
            <mxPoint x="177.71" y="150" as="sourcePoint" />
            <mxPoint x="177.71" y="310" as="targetPoint" />
          </mxGeometry>
        </mxCell>
        <mxCell id="p3O5rdR1s3KHmmkNWaoz-7" value="2" style="edgeLabel;html=1;align=center;verticalAlign=middle;resizable=0;points=[];" vertex="1" connectable="0" parent="p3O5rdR1s3KHmmkNWaoz-6">
          <mxGeometry x="-0.5168" relative="1" as="geometry">
            <mxPoint as="offset" />
          </mxGeometry>
        </mxCell>
        <mxCell id="p3O5rdR1s3KHmmkNWaoz-8" value="" style="endArrow=classic;html=1;rounded=0;" edge="1" parent="WIyWlLk6GJQsqaUBKTNV-1">
          <mxGeometry width="50" height="50" relative="1" as="geometry">
            <mxPoint x="255.70999999999998" y="310" as="sourcePoint" />
            <mxPoint x="255.70999999999998" y="150" as="targetPoint" />
          </mxGeometry>
        </mxCell>
        <mxCell id="p3O5rdR1s3KHmmkNWaoz-9" value="" style="ellipse;whiteSpace=wrap;html=1;aspect=fixed;" vertex="1" parent="WIyWlLk6GJQsqaUBKTNV-1">
          <mxGeometry x="90" y="130" width="20" height="20" as="geometry" />
        </mxCell>
        <mxCell id="p3O5rdR1s3KHmmkNWaoz-10" value="" style="ellipse;whiteSpace=wrap;html=1;aspect=fixed;" vertex="1" parent="WIyWlLk6GJQsqaUBKTNV-1">
          <mxGeometry x="480" y="130" width="20" height="20" as="geometry" />
        </mxCell>
        <mxCell id="p3O5rdR1s3KHmmkNWaoz-11" value="" style="ellipse;whiteSpace=wrap;html=1;aspect=fixed;" vertex="1" parent="WIyWlLk6GJQsqaUBKTNV-1">
          <mxGeometry x="173" y="135" width="10" height="10" as="geometry" />
        </mxCell>
        <mxCell id="p3O5rdR1s3KHmmkNWaoz-12" value="" style="ellipse;whiteSpace=wrap;html=1;aspect=fixed;" vertex="1" parent="WIyWlLk6GJQsqaUBKTNV-1">
          <mxGeometry x="251" y="135" width="10" height="10" as="geometry" />
        </mxCell>
        <mxCell id="p3O5rdR1s3KHmmkNWaoz-13" value="" style="ellipse;whiteSpace=wrap;html=1;aspect=fixed;" vertex="1" parent="WIyWlLk6GJQsqaUBKTNV-1">
          <mxGeometry x="329" y="135" width="10" height="10" as="geometry" />
        </mxCell>
        <mxCell id="p3O5rdR1s3KHmmkNWaoz-14" value="" style="ellipse;whiteSpace=wrap;html=1;aspect=fixed;" vertex="1" parent="WIyWlLk6GJQsqaUBKTNV-1">
          <mxGeometry x="407" y="135" width="10" height="10" as="geometry" />
        </mxCell>
        <mxCell id="p3O5rdR1s3KHmmkNWaoz-15" value="" style="endArrow=none;html=1;rounded=0;endFill=0;startArrow=classic;startFill=1;" edge="1" parent="WIyWlLk6GJQsqaUBKTNV-1">
          <mxGeometry width="50" height="50" relative="1" as="geometry">
            <mxPoint x="160" y="139.71000000000004" as="sourcePoint" />
            <mxPoint x="120" y="139.71000000000004" as="targetPoint" />
          </mxGeometry>
        </mxCell>
        <mxCell id="p3O5rdR1s3KHmmkNWaoz-16" value="1" style="edgeLabel;html=1;align=center;verticalAlign=middle;resizable=0;points=[];" vertex="1" connectable="0" parent="p3O5rdR1s3KHmmkNWaoz-15">
          <mxGeometry x="0.5724" y="-1" relative="1" as="geometry">
            <mxPoint x="12" y="1" as="offset" />
          </mxGeometry>
        </mxCell>
        <mxCell id="p3O5rdR1s3KHmmkNWaoz-17" value="Start" style="text;html=1;strokeColor=none;fillColor=none;align=center;verticalAlign=middle;whiteSpace=wrap;rounded=0;" vertex="1" parent="WIyWlLk6GJQsqaUBKTNV-1">
          <mxGeometry x="70" y="100" width="60" height="30" as="geometry" />
        </mxCell>
        <mxCell id="p3O5rdR1s3KHmmkNWaoz-18" value="X" style="endArrow=classic;html=1;rounded=0;" edge="1" parent="WIyWlLk6GJQsqaUBKTNV-1">
          <mxGeometry x="0.5" y="-10" width="50" height="50" relative="1" as="geometry">
            <mxPoint x="100" y="230" as="sourcePoint" />
            <mxPoint x="140" y="230" as="targetPoint" />
            <mxPoint as="offset" />
          </mxGeometry>
        </mxCell>
        <mxCell id="p3O5rdR1s3KHmmkNWaoz-19" value="" style="endArrow=classic;html=1;rounded=0;" edge="1" parent="WIyWlLk6GJQsqaUBKTNV-1" target="p3O5rdR1s3KHmmkNWaoz-0">
          <mxGeometry width="50" height="50" relative="1" as="geometry">
            <mxPoint x="100" y="230" as="sourcePoint" />
            <mxPoint x="100" y="190" as="targetPoint" />
          </mxGeometry>
        </mxCell>
        <mxCell id="p3O5rdR1s3KHmmkNWaoz-20" value="" style="endArrow=classic;html=1;rounded=0;" edge="1" parent="WIyWlLk6GJQsqaUBKTNV-1">
          <mxGeometry width="50" height="50" relative="1" as="geometry">
            <mxPoint x="100" y="230" as="sourcePoint" />
            <mxPoint x="100" y="190" as="targetPoint" />
          </mxGeometry>
        </mxCell>
        <mxCell id="p3O5rdR1s3KHmmkNWaoz-21" value="Y" style="edgeLabel;html=1;align=center;verticalAlign=middle;resizable=0;points=[];" vertex="1" connectable="0" parent="p3O5rdR1s3KHmmkNWaoz-20">
          <mxGeometry x="0.4431" relative="1" as="geometry">
            <mxPoint x="10" as="offset" />
          </mxGeometry>
        </mxCell>
        <mxCell id="p3O5rdR1s3KHmmkNWaoz-22" value="Serpentine" style="text;html=1;strokeColor=none;fillColor=none;align=center;verticalAlign=middle;whiteSpace=wrap;rounded=0;fontSize=20;" vertex="1" parent="WIyWlLk6GJQsqaUBKTNV-1">
          <mxGeometry x="70" y="60" width="120" height="30" as="geometry" />
        </mxCell>
        <mxCell id="p3O5rdR1s3KHmmkNWaoz-23" value="" style="ellipse;whiteSpace=wrap;html=1;aspect=fixed;" vertex="1" parent="WIyWlLk6GJQsqaUBKTNV-1">
          <mxGeometry x="173" y="315" width="10" height="10" as="geometry" />
        </mxCell>
        <mxCell id="p3O5rdR1s3KHmmkNWaoz-24" value="" style="endArrow=none;html=1;rounded=0;endFill=0;startArrow=classic;startFill=1;" edge="1" parent="WIyWlLk6GJQsqaUBKTNV-1">
          <mxGeometry width="50" height="50" relative="1" as="geometry">
            <mxPoint x="318" y="139.71000000000004" as="sourcePoint" />
            <mxPoint x="278" y="139.71000000000004" as="targetPoint" />
          </mxGeometry>
        </mxCell>
        <mxCell id="p3O5rdR1s3KHmmkNWaoz-25" value="" style="endArrow=none;html=1;rounded=0;endFill=0;startArrow=classic;startFill=1;" edge="1" parent="WIyWlLk6GJQsqaUBKTNV-1">
          <mxGeometry width="50" height="50" relative="1" as="geometry">
            <mxPoint x="470" y="139.71000000000004" as="sourcePoint" />
            <mxPoint x="430" y="139.71000000000004" as="targetPoint" />
          </mxGeometry>
        </mxCell>
        <mxCell id="p3O5rdR1s3KHmmkNWaoz-26" value="" style="endArrow=classic;html=1;rounded=0;" edge="1" parent="WIyWlLk6GJQsqaUBKTNV-1">
          <mxGeometry width="50" height="50" relative="1" as="geometry">
            <mxPoint x="333.71" y="150" as="sourcePoint" />
            <mxPoint x="333.71" y="310" as="targetPoint" />
          </mxGeometry>
        </mxCell>
        <mxCell id="p3O5rdR1s3KHmmkNWaoz-27" value="" style="endArrow=classic;html=1;rounded=0;" edge="1" parent="WIyWlLk6GJQsqaUBKTNV-1">
          <mxGeometry width="50" height="50" relative="1" as="geometry">
            <mxPoint x="411.71" y="310" as="sourcePoint" />
            <mxPoint x="411.71" y="150" as="targetPoint" />
          </mxGeometry>
        </mxCell>
        <mxCell id="p3O5rdR1s3KHmmkNWaoz-28" value="" style="endArrow=none;html=1;rounded=0;endFill=0;startArrow=classic;startFill=1;" edge="1" parent="WIyWlLk6GJQsqaUBKTNV-1">
          <mxGeometry width="50" height="50" relative="1" as="geometry">
            <mxPoint x="394" y="319.71000000000004" as="sourcePoint" />
            <mxPoint x="354" y="319.71000000000004" as="targetPoint" />
          </mxGeometry>
        </mxCell>
        <mxCell id="p3O5rdR1s3KHmmkNWaoz-29" value="" style="endArrow=none;html=1;rounded=0;endFill=0;startArrow=classic;startFill=1;" edge="1" parent="WIyWlLk6GJQsqaUBKTNV-1">
          <mxGeometry width="50" height="50" relative="1" as="geometry">
            <mxPoint x="240" y="319.71000000000004" as="sourcePoint" />
            <mxPoint x="200" y="319.71000000000004" as="targetPoint" />
          </mxGeometry>
        </mxCell>
        <mxCell id="p3O5rdR1s3KHmmkNWaoz-30" value="" style="endArrow=classic;html=1;rounded=0;" edge="1" parent="WIyWlLk6GJQsqaUBKTNV-1">
          <mxGeometry width="50" height="50" relative="1" as="geometry">
            <mxPoint x="489.71000000000004" y="157.5" as="sourcePoint" />
            <mxPoint x="490" y="302.5" as="targetPoint" />
          </mxGeometry>
        </mxCell>
        <mxCell id="p3O5rdR1s3KHmmkNWaoz-31" value="10" style="edgeLabel;html=1;align=center;verticalAlign=middle;resizable=0;points=[];" vertex="1" connectable="0" parent="p3O5rdR1s3KHmmkNWaoz-30">
          <mxGeometry x="-0.0112" y="-2" relative="1" as="geometry">
            <mxPoint as="offset" />
          </mxGeometry>
        </mxCell>
        <mxCell id="p3O5rdR1s3KHmmkNWaoz-33" value="" style="endArrow=none;html=1;rounded=0;endFill=0;startArrow=classic;startFill=1;dashed=1;" edge="1" parent="WIyWlLk6GJQsqaUBKTNV-1">
          <mxGeometry width="50" height="50" relative="1" as="geometry">
            <mxPoint x="427" y="320.04999999999995" as="sourcePoint" />
            <mxPoint x="467" y="319.76" as="targetPoint" />
          </mxGeometry>
        </mxCell>
        <mxCell id="p3O5rdR1s3KHmmkNWaoz-34" value="11" style="edgeLabel;html=1;align=center;verticalAlign=middle;resizable=0;points=[];" vertex="1" connectable="0" parent="p3O5rdR1s3KHmmkNWaoz-33">
          <mxGeometry x="-0.0197" y="-2" relative="1" as="geometry">
            <mxPoint y="-2" as="offset" />
          </mxGeometry>
        </mxCell>
        <mxCell id="p3O5rdR1s3KHmmkNWaoz-35" value="" style="endArrow=none;html=1;rounded=0;endFill=0;startArrow=classic;startFill=1;dashed=1;" edge="1" parent="WIyWlLk6GJQsqaUBKTNV-1">
          <mxGeometry width="50" height="50" relative="1" as="geometry">
            <mxPoint x="355" y="140.14" as="sourcePoint" />
            <mxPoint x="395" y="139.85000000000002" as="targetPoint" />
          </mxGeometry>
        </mxCell>
        <mxCell id="p3O5rdR1s3KHmmkNWaoz-36" value="13" style="edgeLabel;html=1;align=center;verticalAlign=middle;resizable=0;points=[];" vertex="1" connectable="0" parent="p3O5rdR1s3KHmmkNWaoz-35">
          <mxGeometry x="-0.0197" y="-2" relative="1" as="geometry">
            <mxPoint x="2" y="-2" as="offset" />
          </mxGeometry>
        </mxCell>
        <mxCell id="p3O5rdR1s3KHmmkNWaoz-37" value="" style="endArrow=none;html=1;rounded=0;endFill=0;startArrow=classic;startFill=1;dashed=1;" edge="1" parent="WIyWlLk6GJQsqaUBKTNV-1">
          <mxGeometry width="50" height="50" relative="1" as="geometry">
            <mxPoint x="277" y="320.04999999999995" as="sourcePoint" />
            <mxPoint x="317" y="319.76" as="targetPoint" />
          </mxGeometry>
        </mxCell>
        <mxCell id="p3O5rdR1s3KHmmkNWaoz-40" value="" style="endArrow=none;html=1;rounded=0;endFill=0;startArrow=classic;startFill=1;dashed=1;" edge="1" parent="WIyWlLk6GJQsqaUBKTNV-1">
          <mxGeometry width="50" height="50" relative="1" as="geometry">
            <mxPoint x="197" y="140.04999999999995" as="sourcePoint" />
            <mxPoint x="237" y="139.76" as="targetPoint" />
          </mxGeometry>
        </mxCell>
        <mxCell id="p3O5rdR1s3KHmmkNWaoz-41" value="" style="endArrow=none;html=1;rounded=0;endFill=0;startArrow=classic;startFill=1;dashed=1;" edge="1" parent="WIyWlLk6GJQsqaUBKTNV-1">
          <mxGeometry width="50" height="50" relative="1" as="geometry">
            <mxPoint x="117" y="320.04999999999995" as="sourcePoint" />
            <mxPoint x="157" y="319.76" as="targetPoint" />
          </mxGeometry>
        </mxCell>
        <mxCell id="p3O5rdR1s3KHmmkNWaoz-42" value="" style="endArrow=none;html=1;rounded=0;endFill=0;startArrow=classic;startFill=1;dashed=1;" edge="1" parent="WIyWlLk6GJQsqaUBKTNV-1">
          <mxGeometry width="50" height="50" relative="1" as="geometry">
            <mxPoint x="99.83" y="160" as="sourcePoint" />
            <mxPoint x="99.83" y="180" as="targetPoint" />
          </mxGeometry>
        </mxCell>
        <mxCell id="p3O5rdR1s3KHmmkNWaoz-43" value="" style="endArrow=none;html=1;rounded=0;endFill=0;startArrow=none;startFill=0;dashed=1;" edge="1" parent="WIyWlLk6GJQsqaUBKTNV-1">
          <mxGeometry width="50" height="50" relative="1" as="geometry">
            <mxPoint x="99.75999999999999" y="250" as="sourcePoint" />
            <mxPoint x="100" y="300" as="targetPoint" />
          </mxGeometry>
        </mxCell>
      </root>
    </mxGraphModel>
  </diagram>
</mxfile>
